<svg width="298" height="252" viewBox="0 0 298 252" fill="none" xmlns="http://www.w3.org/2000/svg">
    <path d="M239.735 20.5415C242.346 20.5415 244.463 18.4288 244.463 15.8227C244.463 13.2166 242.346 11.1039 239.735 11.1039C237.124 11.1039 235.007 13.2166 235.007 15.8227C235.007 18.4288 237.124 20.5415 239.735 20.5415Z" fill="#F1F1F1"/>
    <path d="M211.857 203.146C214.469 203.146 216.585 201.033 216.585 198.427C216.585 195.821 214.469 193.708 211.857 193.708C209.246 193.708 207.129 195.821 207.129 198.427C207.129 201.033 209.246 203.146 211.857 203.146Z" fill="#F1F1F1"/>
    <path d="M94.2595 65.9526C96.8708 65.9526 98.9876 63.8399 98.9876 61.2338C98.9876 58.6277 96.8708 56.515 94.2595 56.515C91.6482 56.515 89.5314 58.6277 89.5314 61.2338C89.5314 63.8399 91.6482 65.9526 94.2595 65.9526Z" fill="#F1F1F1"/>
    <path d="M50.3075 252C78.0916 252 100.615 248.707 100.615 244.645C100.615 240.582 78.0916 237.289 50.3075 237.289C22.5234 237.289 0 240.582 0 244.645C0 248.707 22.5234 252 50.3075 252Z" fill="#F1F1F1"/>
    <path d="M76.8828 191.551L89.5125 187.602C88.8135 182.36 87.2178 177.276 84.795 172.573L72.1653 176.522C75.1291 180.986 76.7647 186.197 76.8828 191.551V191.551Z" fill="#6C63FF"/>
    <path d="M46.5265 96.9472C53.0389 96.9472 58.3183 91.6783 58.3183 85.1787C58.3183 78.6792 53.0389 73.4103 46.5265 73.4103C40.0141 73.4103 34.7347 78.6792 34.7347 85.1787C34.7347 91.6783 40.0141 96.9472 46.5265 96.9472Z" fill="#2F2E41"/>
    <path d="M33.8054 232.652L31.5624 242.246H37.0097L39.2527 231.373L33.8054 232.652Z" fill="#9F616A"/>
    <path d="M60.0807 232.652V241.607L65.528 242.246V232.652H60.0807Z" fill="#9F616A"/>
    <path d="M32.2032 130.957C32.2032 130.957 32.8441 144.708 33.4849 145.667C34.1258 146.627 39.8935 160.378 39.8935 160.378L42.7774 151.424C42.7774 151.424 38.2914 144.068 38.9322 139.911C39.5731 135.754 39.1694 130.638 39.1694 130.638L32.2032 130.957Z" fill="#9F616A"/>
    <path d="M50.4677 97.6979C55.4229 97.6979 59.4398 93.689 59.4398 88.7436C59.4398 83.7983 55.4229 79.7893 50.4677 79.7893C45.5126 79.7893 41.4957 83.7983 41.4957 88.7436C41.4957 93.689 45.5126 97.6979 50.4677 97.6979Z" fill="#9F616A"/>
    <path d="M43.0979 89.703C43.0979 89.703 43.4183 102.495 41.1753 104.414C38.9323 106.332 53.9925 104.733 53.9925 104.733C53.9925 104.733 50.7882 95.7791 53.3516 93.8604C55.9151 91.9416 43.0979 89.703 43.0979 89.703Z" fill="#9F616A"/>
    <path d="M54.9537 104.094C54.9537 104.094 53.0312 100.576 50.4677 100.896C47.9043 101.216 39.5731 101.855 39.2527 102.495C38.9322 103.134 37.971 105.373 37.3301 106.013C36.6892 106.652 31.8828 107.612 31.5623 111.449C31.2419 115.287 43.0978 138.632 43.0978 138.632C43.0978 138.632 41.4957 144.069 41.8161 145.348C42.1365 146.627 40.214 150.464 40.5344 152.063C40.8548 153.662 35.7279 163.256 38.2914 175.728V195.876C38.2914 195.876 29.6398 230.734 32.2032 233.292C34.7667 235.85 43.4183 234.251 45.0204 233.292C46.6226 232.333 53.3516 184.043 53.3516 184.043L56.5559 167.734L56.8763 203.551C56.8763 203.551 56.2355 233.612 58.4785 234.571C60.7215 235.53 69.3731 235.85 70.014 233.932C70.5138 232.435 72.9627 192.617 74.0164 175.164C74.3814 169.139 73.9066 163.093 72.6056 157.199C71.2719 151.162 69.3358 144.069 67.1301 141.19C62.9645 135.754 60.4011 118.485 60.4011 118.485L65.8484 108.571C65.8484 108.571 62.6441 105.373 60.7215 105.373C58.7989 105.373 54.9537 104.094 54.9537 104.094Z" fill="#2F2E41"/>
    <path d="M33.4849 109.211L31.7951 110.359C31.7951 110.359 30.6011 130.957 31.5624 132.236C32.5236 133.515 39.207 132.891 39.7105 131.764C40.214 130.637 33.4849 109.211 33.4849 109.211Z" fill="#2F2E41"/>
    <path d="M59.7602 128.398C59.7602 128.398 60.0807 141.83 62.0032 145.668C63.9258 149.505 70.9753 165.495 70.9753 165.495C70.9753 165.495 70.5661 183.094 74.1352 178.772C77.7043 174.449 75.4613 164.216 75.4613 164.216L69.3731 140.551C69.3731 140.551 66.1688 129.997 66.4893 126.799C66.8097 123.602 59.7602 128.398 59.7602 128.398Z" fill="#9F616A"/>
    <path d="M65.528 236.426C65.528 236.426 65.8484 236.17 66.8097 237.129C67.771 238.089 70.3344 239.368 70.014 242.886C69.6935 246.404 67.771 247.043 67.771 247.043V246.084H66.8097V247.683C66.8097 247.683 65.2075 252.799 57.8376 249.602C57.8376 249.602 57.5172 247.043 57.8376 245.444C58.1581 243.845 58.1581 236.17 59.1194 236.49C60.0806 236.81 62.6441 237.129 63.2849 238.409C63.9258 239.688 65.8484 239.24 65.528 236.426Z" fill="#2F2E41"/>
    <path d="M32.5236 236.745C32.5236 236.745 32.2032 236.49 31.2419 237.449C30.2806 238.409 27.7172 239.688 28.0376 243.206C28.3581 246.723 30.2806 247.363 30.2806 247.363V246.404H31.2419V248.003C31.2419 248.003 32.8441 253.119 40.214 249.921C40.214 249.921 40.5344 247.363 40.214 245.764C39.8935 244.165 39.8935 236.49 38.9322 236.81C37.971 237.129 35.4075 237.449 34.7667 238.728C34.1258 240.008 32.2032 239.559 32.5236 236.745Z" fill="#2F2E41"/>
    <path d="M61.3624 107.612L65.8484 108.571C65.8484 108.571 65.8484 115.607 67.1301 118.485C68.4118 121.363 70.6548 128.079 69.6936 128.399C68.7323 128.718 59.7602 133.195 59.1194 130.637C58.4785 128.079 56.8764 107.612 61.3624 107.612Z" fill="#2F2E41"/>
    <path d="M33.7521 81.4521C40.2645 81.4521 45.5439 76.1832 45.5439 69.6836C45.5439 63.1841 40.2645 57.9152 33.7521 57.9152C27.2397 57.9152 21.9603 63.1841 21.9603 69.6836C21.9603 76.1832 27.2397 81.4521 33.7521 81.4521Z" fill="#2F2E41"/>
    <path d="M23.5811 79.4287C25.1073 80.5296 26.8755 81.2497 28.7377 81.5288C30.6 81.8079 32.5021 81.6378 34.285 81.0328C36.0679 80.4277 37.6797 79.4054 38.9855 78.0512C40.2913 76.6971 41.2532 75.0505 41.7907 73.2492C41.5873 74.8635 41.0508 76.4181 40.2151 77.8149C39.3793 79.2117 38.2625 80.4204 36.935 81.3647C35.6076 82.3091 34.0984 82.9684 32.5028 83.3013C30.9071 83.6341 29.2596 83.6331 27.6643 83.2984C26.0691 82.9637 24.5607 82.3025 23.2344 81.3567C21.908 80.4108 20.7926 79.2007 19.9585 77.8029C19.1244 76.4051 18.5898 74.8499 18.3883 73.2354C18.1869 71.621 18.323 69.9824 18.7881 68.4231C18.524 70.518 18.8296 72.6452 19.6729 74.5816C20.5162 76.5181 21.8661 78.1923 23.5811 79.4287V79.4287Z" fill="#2F2E41"/>
    <path d="M43.3821 95.7704C48.1578 95.7704 52.0294 91.9066 52.0294 87.1402C52.0294 82.3739 48.1578 78.51 43.3821 78.51C38.6063 78.51 34.7347 82.3739 34.7347 87.1402C34.7347 91.9066 38.6063 95.7704 43.3821 95.7704Z" fill="#2F2E41"/>
    <path d="M50.6536 89.8862C54.8867 89.8862 58.3183 87.2079 58.3183 83.9039C58.3183 80.6 54.8867 77.9216 50.6536 77.9216C46.4205 77.9216 42.989 80.6 42.989 83.9039C42.989 87.2079 46.4205 89.8862 50.6536 89.8862Z" fill="#2F2E41"/>
    <path d="M52.698 92.6026C53.5014 92.6026 54.1527 91.4526 54.1527 90.034C54.1527 88.6155 53.5014 87.4655 52.698 87.4655C51.8946 87.4655 51.2433 88.6155 51.2433 90.034C51.2433 91.4526 51.8946 92.6026 52.698 92.6026Z" fill="#A0616A"/>
    <path d="M294.04 56.042L130.16 6.9281L90.6251 138.325L254.505 187.439L294.04 56.042Z" fill="#F1F1F1"/>
    <path d="M195.836 45.377L234.653 61.0358" stroke="#3F3D56" stroke-width="2" stroke-miterlimit="10"/>
    <path d="M196.822 48.5964L197.404 48.3256L196.063 45.4695L199.016 44.3444L198.787 43.7467L195.191 45.1177L196.822 48.5964Z" fill="#3F3D56"/>
    <path d="M231.702 62.6667L231.472 62.069L234.424 60.9443L233.085 58.0879L233.666 57.817L235.297 61.2964L231.702 62.6667Z" fill="#3F3D56"/>
    <path d="M215.244 56.7241C217.191 56.7241 218.769 55.1492 218.769 53.2064C218.769 51.2636 217.191 49.6886 215.244 49.6886C213.298 49.6886 211.719 51.2636 211.719 53.2064C211.719 55.1492 213.298 56.7241 215.244 56.7241Z" fill="#3F3D56"/>
    <path d="M192.878 153.934L228.639 132.204" stroke="#3F3D56" stroke-width="2" stroke-miterlimit="10"/>
    <path d="M196.054 155.067L196.184 154.44L193.088 153.807L193.946 150.772L193.329 150.599L192.284 154.296L196.054 155.067Z" fill="#3F3D56"/>
    <path d="M228.188 135.54L227.57 135.367L228.429 132.332L225.333 131.699L225.462 131.073L229.233 131.844L228.188 135.54Z" fill="#3F3D56"/>
    <path d="M210.758 146.587C212.705 146.587 214.283 145.012 214.283 143.069C214.283 141.126 212.705 139.552 210.758 139.552C208.812 139.552 207.233 141.126 207.233 143.069C207.233 145.012 208.812 146.587 210.758 146.587Z" fill="#3F3D56"/>
    <path d="M147.948 85.0802L147.961 126.866" stroke="#3F3D56" stroke-width="2" stroke-miterlimit="10"/>
    <path d="M145.327 87.2004L145.797 87.6366L147.947 85.3257L150.099 87.6353L150.569 87.1988L147.947 84.3865L145.327 87.2004Z" fill="#3F3D56"/>
    <path d="M145.338 124.747L145.808 124.311L147.96 126.62L150.111 124.309L150.58 124.746L147.96 127.559L145.338 124.747Z" fill="#3F3D56"/>
    <path d="M147.954 109.491C149.901 109.491 151.479 107.916 151.479 105.973C151.479 104.03 149.901 102.455 147.954 102.455C146.007 102.455 144.429 104.03 144.429 105.973C144.429 107.916 146.007 109.491 147.954 109.491Z" fill="#3F3D56"/>
    <path d="M176.557 0H118.239V72.2741H176.557V0Z" fill="#3F3D56"/>
    <path d="M143.752 26.906H130.517C129.614 21.6951 129.614 16.3681 130.517 11.1571H143.752C142.261 16.3013 142.261 21.7618 143.752 26.906V26.906Z" fill="#FF6584"/>
    <path d="M151.044 34.8938H164.279C165.182 29.6829 165.182 24.3559 164.279 19.1449H151.044C152.535 24.2891 152.535 29.7496 151.044 34.8938V34.8938Z" fill="#6C63FF"/>
    <path d="M138.547 61.1171H151.782C152.685 55.9062 152.685 50.5791 151.782 45.3682H138.547C140.038 50.5124 140.038 55.9729 138.547 61.1171V61.1171Z" fill="#6C63FF"/>
    <path d="M298 68.7563H239.682V141.03H298V68.7563Z" fill="#3F3D56"/>
    <path d="M289.669 84.1066H248.013V86.0253H289.669V84.1066Z" fill="#6C63FF"/>
    <path d="M289.669 90.8224H248.013V92.7412H289.669V90.8224Z" fill="#6C63FF"/>
    <path d="M289.669 97.5381H248.013V99.4569H289.669V97.5381Z" fill="#6C63FF"/>
    <path d="M289.669 104.254H248.013V106.173H289.669V104.254Z" fill="#6C63FF"/>
    <path d="M289.669 110.969H248.013V112.888H289.669V110.969Z" fill="#6C63FF"/>
    <path d="M279.736 118.005H257.946V125.68H279.736V118.005Z" fill="#6C63FF"/>
    <path d="M181.684 142.949H123.366V215.223H181.684V142.949Z" fill="#3F3D56"/>
    <path d="M173.448 183.182H131.792V185.1H173.448V183.182Z" fill="#6C63FF"/>
    <path d="M173.448 189.897H131.792V191.816H173.448V189.897Z" fill="#6C63FF"/>
    <path d="M173.448 196.613H131.792V198.532H173.448V196.613Z" fill="#6C63FF"/>
    <path d="M173.448 203.329H131.792V205.248H173.448V203.329Z" fill="#6C63FF"/>
    <path opacity="0.3" d="M144.553 168.674H131.318C130.415 163.463 130.415 158.136 131.318 152.925H144.553C143.062 158.069 143.062 163.53 144.553 168.674V168.674Z" fill="#6C63FF"/>
    <path opacity="0.3" d="M174.409 154.4H150.056V155.999H174.409V154.4Z" fill="#6C63FF"/>
    <path opacity="0.3" d="M174.409 160.156H150.056V161.755H174.409V160.156Z" fill="#6C63FF"/>
    <path opacity="0.3" d="M174.409 165.913H150.056V167.512H174.409V165.913Z" fill="#6C63FF"/>
    <path opacity="0.3" d="M174.409 171.669H150.056V173.268H174.409V171.669Z" fill="#6C63FF"/>
</svg>
