<!-- https://jakearchibald.github.io/svgomg/ -->
<!-- https://github.com/svg/svgo/issues/123 -->
<svg xmlns="http://www.w3.org/2000/svg" viewBox="0 0 110 110"><path d="M53.6 0C24 0 0 24 0 53.6s24 53.6 53.6 53.6 53.6-24 53.6-53.6S83.2 0 53.6 0zm4.3 71.7L37.5 83.4c-.7.4-2.8.2-2.8-1.4V25.9h.1c0-1.3 1.6-2.1 2.7-1.7l3.9 2.1v47c0 1 1.7.3 1.7-1.2V27.3l6.5 3.8v37.6c0 1.2 1.8.5 1.8-1.1V32.1l6.5 3.9v35.7zm28.8-16.5L59.5 70.8V46.6l8.6-4.9 5.7 3.3-7.8 4.5c-.8.5-.6 2.7 0 2.3l9.8-5.6 5.5 3.2-15.2 8.8c-.8.6-.7 2.8 0 2.4l17.2-10 3.6 2.2c.6.3.8 1.8-.2 2.4z"/></svg>